<svg preserveAspectRatio="none" overflow="visible" style="display: block;" width="15.75" height="15.75" viewBox="0 0 15.75 15.75" fill="none" xmlns="http://www.w3.org/2000/svg">
<path id="Vector" d="M15.75 7.875C15.75 8.12563 15.6504 8.36599 15.4732 8.54322C15.296 8.72044 15.0556 8.82 14.805 8.82H8.82V14.805C8.82 15.0556 8.72044 15.296 8.54322 15.4732C8.36599 15.6504 8.12563 15.75 7.875 15.75C7.62437 15.75 7.38401 15.6504 7.20678 15.4732C7.02956 15.296 6.93 15.0556 6.93 14.805V8.82H0.945C0.69437 8.82 0.454006 8.72044 0.276784 8.54322C0.0995622 8.36599 0 8.12563 0 7.875C0 7.62437 0.0995622 7.38401 0.276784 7.20678C0.454006 7.02956 0.69437 6.93 0.945 6.93H6.93V0.945C6.93 0.69437 7.02956 0.454006 7.20678 0.276784C7.38401 0.0995622 7.62437 0 7.875 0C8.12563 0 8.36599 0.0995622 8.54322 0.276784C8.72044 0.454006 8.82 0.69437 8.82 0.945V6.93H14.805C15.0556 6.93 15.296 7.02956 15.4732 7.20678C15.6504 7.38401 15.75 7.62437 15.75 7.875Z" fill="#2D70DF"/>
</svg>
